<svg width="55" height="21" viewBox="0 0 55 21" fill="none" xmlns="http://www.w3.org/2000/svg">
<g clip-path="url(#clip0_1_104)">
<path fill-rule="evenodd" clip-rule="evenodd" d="M51.5564 12.706C51.108 13.139 50.9043 13.763 51.0093 14.375L51.6866 18.291C51.8976 19.51 50.9211 20.5 49.8134 20.5C49.5215 20.5 49.2201 20.431 48.9282 20.279L45.3845 18.43C45.1073 18.286 44.8038 18.214 44.4993 18.214C44.1959 18.214 43.8924 18.286 43.6152 18.43L40.0715 20.279C39.7796 20.431 39.4782 20.5 39.1863 20.5C38.0786 20.5 37.1021 19.51 37.3131 18.291L37.9904 14.375C38.0954 13.763 37.8917 13.139 37.4433 12.706L34.5758 9.933C33.4481 8.842 34.0707 6.941 35.6289 6.716L39.5916 6.145C40.2111 6.056 40.7466 5.67001 41.0228 5.11301L42.7952 1.55099C43.1438 0.849995 43.8221 0.5 44.4993 0.5C45.1776 0.5 45.8559 0.849995 46.2045 1.55099L47.9769 5.11301C48.2531 5.67001 48.7886 6.056 49.4081 6.145L53.3708 6.716C54.929 6.941 55.5516 8.842 54.4239 9.933L51.5564 12.706Z" fill="#FFB930"/>
</g>
<path d="M9.89746 12.2188V14.2051H0.677734L0.554688 12.667L5.88965 4.20312H7.90234L5.72266 7.85059L3.06836 12.2188H9.89746ZM8.44727 4.20312V17H5.91602V4.20312H8.44727ZM11.4971 15.7783C11.4971 15.4033 11.626 15.0898 11.8838 14.8379C12.1475 14.5859 12.4961 14.46 12.9297 14.46C13.3633 14.46 13.709 14.5859 13.9668 14.8379C14.2305 15.0898 14.3623 15.4033 14.3623 15.7783C14.3623 16.1533 14.2305 16.4668 13.9668 16.7188C13.709 16.9707 13.3633 17.0967 12.9297 17.0967C12.4961 17.0967 12.1475 16.9707 11.8838 16.7188C11.626 16.4668 11.4971 16.1533 11.4971 15.7783ZM18.2822 15.0752H18.4492C19.1523 15.0752 19.7559 14.9902 20.2598 14.8203C20.7695 14.6445 21.1885 14.3926 21.5166 14.0645C21.8447 13.7363 22.0879 13.335 22.2461 12.8604C22.4043 12.3799 22.4834 11.835 22.4834 11.2256V8.7998C22.4834 8.33691 22.4365 7.92969 22.3428 7.57812C22.2549 7.22656 22.126 6.93652 21.9561 6.70801C21.792 6.47363 21.5986 6.29785 21.376 6.18066C21.1592 6.06348 20.9189 6.00488 20.6553 6.00488C20.374 6.00488 20.125 6.0752 19.9082 6.21582C19.6914 6.35059 19.5068 6.53516 19.3545 6.76953C19.208 7.00391 19.0938 7.27344 19.0117 7.57812C18.9355 7.87695 18.8975 8.19043 18.8975 8.51855C18.8975 8.84668 18.9355 9.16016 19.0117 9.45898C19.0879 9.75195 19.2021 10.0127 19.3545 10.2412C19.5068 10.4639 19.6973 10.6426 19.9258 10.7773C20.1543 10.9062 20.4238 10.9707 20.7344 10.9707C21.0332 10.9707 21.2998 10.915 21.5342 10.8037C21.7744 10.6865 21.9766 10.5342 22.1406 10.3467C22.3105 10.1592 22.4395 9.95117 22.5273 9.72266C22.6211 9.49414 22.668 9.2627 22.668 9.02832L23.5029 9.48535C23.5029 9.89551 23.415 10.2998 23.2393 10.6982C23.0635 11.0967 22.8174 11.46 22.501 11.7881C22.1904 12.1104 21.8301 12.3682 21.4199 12.5615C21.0098 12.7549 20.5703 12.8516 20.1016 12.8516C19.5039 12.8516 18.9736 12.7432 18.5107 12.5264C18.0479 12.3037 17.6553 11.999 17.333 11.6123C17.0166 11.2197 16.7764 10.7627 16.6123 10.2412C16.4482 9.71973 16.3662 9.1543 16.3662 8.54492C16.3662 7.92383 16.4658 7.34082 16.665 6.7959C16.8701 6.25098 17.1602 5.77051 17.5352 5.35449C17.916 4.93848 18.3701 4.61328 18.8975 4.37891C19.4307 4.13867 20.0225 4.01855 20.6729 4.01855C21.3232 4.01855 21.915 4.14453 22.4482 4.39648C22.9814 4.64844 23.4385 5.00586 23.8193 5.46875C24.2002 5.92578 24.4932 6.47363 24.6982 7.1123C24.9092 7.75098 25.0146 8.45996 25.0146 9.23926V10.1182C25.0146 10.9502 24.9238 11.7236 24.7422 12.4385C24.5664 13.1533 24.2998 13.8008 23.9424 14.3809C23.5908 14.9551 23.1514 15.4473 22.624 15.8574C22.1025 16.2676 21.4961 16.5811 20.8047 16.7979C20.1133 17.0146 19.3398 17.123 18.4844 17.123H18.2822V15.0752Z" fill="#E66767"/>
<defs>
<clipPath id="clip0_1_104">
<rect width="21" height="21" fill="white" transform="translate(34)"/>
</clipPath>
</defs>
</svg>
